<?xml version="1.0" encoding="UTF-8" standalone="no"?>
<!DOCTYPE svg PUBLIC "-//W3C//DTD SVG 1.1//EN" "http://www.w3.org/Graphics/SVG/1.1/DTD/svg11.dtd">
<!-- Generated by Microsoft Visio, SVG Export OFDMTX.svg Page-1 -->
<svg xmlns="http://www.w3.org/2000/svg" xmlns:xlink="http://www.w3.org/1999/xlink" xmlns:ev="http://www.w3.org/2001/xml-events"
		width="7.63695in" height="1.86204in" viewBox="0 0 549.86 134.067" xml:space="preserve" color-interpolation-filters="sRGB"
		class="st14">
	<style type="text/css">
	<![CDATA[
		.st1 {fill:#ffffff}
		.st2 {stroke:#000000;stroke-linecap:round;stroke-linejoin:round;stroke-width:0.24}
		.st3 {fill:none}
		.st4 {fill:#ffffff;stroke:#000000;stroke-linecap:round;stroke-linejoin:round;stroke-width:0.24}
		.st5 {fill:#000000;font-family:Calibri;font-size:0.833336em}
		.st6 {font-size:1em}
		.st7 {marker-end:url(#mrkr13-23);stroke:#000000;stroke-linecap:round;stroke-linejoin:round;stroke-width:0.75}
		.st8 {fill:#000000;fill-opacity:1;stroke:#000000;stroke-opacity:1;stroke-width:0.22935779816514}
		.st9 {fill:none;stroke:none;stroke-linecap:round;stroke-linejoin:round;stroke-width:0.75}
		.st10 {fill:#000000;font-family:Calibri;font-size:0.666664em}
		.st11 {font-size:0.799995em}
		.st12 {stroke:#000000;stroke-linecap:round;stroke-linejoin:round;stroke-width:0.75}
		.st13 {baseline-shift:-32.4939%;font-size:0.649878em}
		.st14 {fill:none;fill-rule:evenodd;font-size:12px;overflow:visible;stroke-linecap:square;stroke-miterlimit:3}
	]]>
	</style>

	<defs id="Markers">
		<g id="lend13">
			<path d="M 3 1 L 0 0 L 3 -1 L 3 1 " style="stroke:none"/>
		</g>
		<marker id="mrkr13-23" class="st8" refX="-13.08" orient="auto" markerUnits="strokeWidth" overflow="visible">
			<use xlink:href="#lend13" transform="scale(-4.36,-4.36) "/>
		</marker>
	</defs>
	<g>
		<title>Page-1</title>
		<g id="shape5-1" transform="translate(116.64,-59.9469) scale(-1,1)">
			<title>Straight bus</title>
			<path d="M21.26 122.73 L7.09 122.73 L7.09 119.89 L0 126.98 L7.09 134.07 L7.09 131.23 L21.26 131.23 L21.26 122.73 Z"
					class="st1"/>
			<path d="M21.26 122.73 L7.09 122.73 L7.09 119.89 L0 126.98 L7.09 134.07 L7.09 131.23 L21.26 131.23" class="st2"/>
		</g>
		<g id="shape1-4" transform="translate(445.813,-58.5296)">
			<title>Oscillator</title>
			<path d="M0 125.56 A8.50394 8.50394 0 0 1 17.01 125.56 A8.50394 8.50394 0 1 1 0 125.56 Z" class="st3"/>
			<path d="M8.5 125.56 A2.83465 2.83465 -180 1 0 14.17 125.56" class="st2"/>
			<path d="M2.83 125.56 A2.83465 2.83465 0 1 1 8.5 125.56" class="st2"/>
			<path d="M0 125.56 A8.50394 8.50394 0 0 1 17.01 125.56 A8.50394 8.50394 0 1 1 0 125.56" class="st2"/>
		</g>
		<g id="shape2-9" transform="translate(413.793,67.0336) rotate(-90)">
			<title>Antenna</title>
			<path d="M28.35 129.82 L0 129.82" class="st2"/>
			<path d="M19.84 129.82 L28.35 125.56" class="st2"/>
			<path d="M28.35 134.07 L19.84 129.82" class="st2"/>
		</g>
		<g id="shape6-14" transform="translate(45.0651,-52.8603)">
			<title>Rectangle.6</title>
			<desc>Serial to parallel</desc>
			<rect x="0" y="105.721" width="49.6063" height="28.3465" class="st4"/>
			<text x="8.14" y="116.89" class="st5">Serial to <tspan x="9.71" dy="1.2em" class="st6">parallel</tspan></text>		</g>
		<g id="shape8-18" transform="translate(10.3406,-59.9469)">
			<title>Dynamic connector</title>
			<path d="M0 126.98 L24.91 126.98" class="st7"/>
		</g>
		<g id="shape9-24" transform="translate(67.0336,-44.8603)">
			<title>Sheet.9</title>
			<desc>N bits per symbol</desc>
			<rect x="0" y="126.067" width="74" height="8" class="st9"/>
			<text x="8.6" y="134.27" class="st10">N bits per symbol</text>		</g>
		<g id="shape10-27" transform="translate(238.146,83.5867) rotate(101.31)">
			<title>Sheet.10</title>
			<path d="M0 134.07 L21.5 134.07" class="st2"/>
		</g>
		<g id="shape11-30" transform="translate(3.25403,-73.2068)">
			<title>Sheet.11</title>
			<desc>01100...</desc>
			<rect x="0" y="126.067" width="40.3071" height="8" class="st9"/>
			<text x="6.99" y="134.27" class="st10">01100...</text>		</g>
		<g id="shape14-33" transform="translate(3.25403,-52.8603)">
			<title>Sheet.14</title>
			<desc>Binary data</desc>
			<rect x="0" y="126.067" width="40.3071" height="8" class="st9"/>
			<text x="1.66" y="134.27" class="st10">Binary data</text>		</g>
		<g id="shape15-36" transform="translate(442.27,-37.7737)">
			<title>Rectangle.15</title>
			<desc>-π/2</desc>
			<rect x="0" y="126.067" width="24.0945" height="8" class="st4"/>
			<text x="4.73" y="133.07" class="st5">-<tspan class="st11">π</tspan><tspan class="st11">/</tspan><tspan class="st11">2</tspan></text>		</g>
		<g id="group20-42" transform="translate(445.813,-115.223)">
			<title>Sheet.20</title>
			<g id="shape17-43">
				<title>Circle</title>
				<path d="M0 125.56 A8.50394 8.50394 0 0 1 17.01 125.56 A8.50394 8.50394 0 1 1 0 125.56 Z" class="st4"/>
			</g>
			<g id="shape18-45" transform="translate(-92.3098,36.7774) rotate(-45)">
				<title>Sheet.18</title>
				<path d="M0 134.07 L17.01 134.07" class="st2"/>
			</g>
			<g id="shape19-48" transform="translate(97.2897,24.7494) rotate(45)">
				<title>Sheet.19</title>
				<path d="M0 134.07 L17.01 134.07" class="st2"/>
			</g>
		</g>
		<g id="group21-51" transform="translate(445.813,-1.83671)">
			<title>Sheet.21</title>
			<g id="shape22-52">
				<title>Circle</title>
				<path d="M0 125.56 A8.50394 8.50394 0 0 1 17.01 125.56 A8.50394 8.50394 0 1 1 0 125.56 Z" class="st4"/>
			</g>
			<g id="shape23-54" transform="translate(-92.3098,36.7774) rotate(-45)">
				<title>Sheet.23</title>
				<path d="M0 134.07 L17.01 134.07" class="st2"/>
			</g>
			<g id="shape24-57" transform="translate(97.2897,24.7494) rotate(45)">
				<title>Sheet.24</title>
				<path d="M0 134.07 L17.01 134.07" class="st2"/>
			</g>
		</g>
		<g id="shape25-60" transform="translate(447.23,-75.5375)">
			<title>Dynamic connector.25</title>
			<path d="M7.09 134.07 L7.09 104.19" class="st7"/>
		</g>
		<g id="group39-65" transform="translate(485.498,-58.5296)">
			<title>Sheet.39</title>
			<g id="shape36-66">
				<title>Circle</title>
				<path d="M0 125.56 A8.50394 8.50394 0 0 1 17.01 125.56 A8.50394 8.50394 0 1 1 0 125.56 Z" class="st4"/>
			</g>
			<g id="shape37-68" transform="translate(-125.563,134.067) rotate(-90)">
				<title>Sheet.37</title>
				<path d="M0 134.07 L17.01 134.07" class="st2"/>
			</g>
			<g id="shape38-71" transform="translate(0,-8.50394)">
				<title>Sheet.38</title>
				<path d="M0 134.07 L17.01 134.07" class="st2"/>
			</g>
		</g>
		<g id="shape40-74" transform="translate(462.821,-123.726)">
			<title>Dynamic connector.40</title>
			<path d="M0 134.07 L31.18 134.07 L31.18 172.45" class="st7"/>
		</g>
		<g id="shape41-79" transform="translate(462.821,-10.3406)">
			<title>Dynamic connector.41</title>
			<path d="M0 134.07 L31.18 134.07 L31.18 95.69" class="st7"/>
		</g>
		<g id="shape43-84" transform="translate(502.506,-59.9469)">
			<title>Dynamic connector.43</title>
			<path d="M0 126.98 L41.1 126.98" class="st12"/>
		</g>
		<g id="shape44-87" transform="translate(447.23,-59.2383)">
			<title>Dynamic connector.44</title>
			<path d="M7.09 134.78 L7.09 137.72" class="st7"/>
		</g>
		<g id="shape45-92" transform="translate(447.23,-37.7737)">
			<title>Dynamic connector.45</title>
			<path d="M7.09 134.07 L7.09 143.19" class="st7"/>
		</g>
		<g id="shape46-97" transform="translate(413.215,-102.971)">
			<title>Sheet.46</title>
			<desc>cos(2πf0t)</desc>
			<rect x="0" y="126.067" width="36.8504" height="8" class="st9"/>
			<text x="2.52" y="134.27" class="st10">cos(2πf<tspan dy="-0.284em" class="st13">0</tspan><tspan dy="0.185em"
						class="st6">t</tspan>)</text>		</g>
		<g id="shape47-102" transform="translate(413.215,-26.4351)">
			<title>Sheet.47</title>
			<desc>sin(2πf0t)</desc>
			<rect x="0" y="126.067" width="36.8504" height="8" class="st9"/>
			<text x="3.3" y="134.27" class="st10">sin(2πf<tspan dy="-0.284em" class="st13">0</tspan><tspan dy="0.185em" class="st6">t</tspan>)</text>		</g>
		<g id="shape49-107" transform="translate(386.994,-73.2068)">
			<title>Sheet.49</title>
			<desc>Real</desc>
			<rect x="0" y="126.067" width="24.0945" height="8" class="st9"/>
			<text x="5.05" y="134.27" class="st10">Real</text>		</g>
		<g id="shape50-110" transform="translate(386.994,-52.8603)">
			<title>Sheet.50</title>
			<desc>Imag</desc>
			<rect x="0" y="126.067" width="24.0945" height="8" class="st9"/>
			<text x="4.05" y="134.27" class="st10">Imag</text>		</g>
		<g id="shape52-113" transform="translate(395.498,-115.223)">
			<title>Rectangle.52</title>
			<desc>DAC</desc>
			<rect x="0" y="117.059" width="36.8504" height="17.0079" class="st4"/>
			<text x="9.79" y="128.56" class="st5">DAC</text>		</g>
		<g id="shape53-116" transform="translate(395.498,-1.83671)">
			<title>Rectangle.53</title>
			<desc>DAC</desc>
			<rect x="0" y="117.059" width="36.8504" height="17.0079" class="st4"/>
			<text x="9.79" y="128.56" class="st5">DAC</text>		</g>
		<g id="shape54-119" transform="translate(431.994,-116.64)">
			<title>Dynamic connector.54</title>
			<path d="M0.35 126.98 L4.01 126.98" class="st7"/>
		</g>
		<g id="shape55-124" transform="translate(431.994,-3.25403)">
			<title>Dynamic connector.55</title>
			<path d="M0.35 126.98 L4.01 126.98" class="st7"/>
		</g>
		<g id="shape56-129" transform="translate(188.215,-52.8603)">
			<title>Rectangle.56</title>
			<desc>Serial to parallel</desc>
			<rect x="0" y="105.721" width="49.6063" height="28.3465" class="st4"/>
			<text x="8.14" y="116.89" class="st5">Serial to <tspan x="9.71" dy="1.2em" class="st6">parallel</tspan></text>		</g>
		<g id="shape58-133" transform="translate(116.64,-52.8603)">
			<title>Rectangle.58</title>
			<desc>I/Q lookup</desc>
			<rect x="0" y="105.721" width="49.6063" height="28.3465" class="st4"/>
			<text x="18.25" y="116.89" class="st5">I/Q <tspan x="10.86" dy="1.2em" class="st6">lookup</tspan></text>		</g>
		<g id="shape59-137" transform="translate(166.246,-59.9469)">
			<title>Dynamic connector.59</title>
			<path d="M0 126.98 L12.16 126.98" class="st7"/>
		</g>
		<g id="shape60-142" transform="translate(141.443,-44.6084)">
			<title>Sheet.60</title>
			<desc>Complex IQ symbols</desc>
			<rect x="0" y="126.067" width="74" height="8" class="st9"/>
			<text x="4.05" y="134.27" class="st10">Complex IQ symbols</text>		</g>
		<g id="shape61-145" transform="translate(259.081,-59.0772) scale(-1,1)">
			<title>Straight bus.61</title>
			<path d="M21.26 122.73 L7.09 122.73 L7.09 119.89 L0 126.98 L7.09 134.07 L7.09 131.23 L21.26 131.23 L21.26 122.73 Z"
					class="st1"/>
			<path d="M21.26 122.73 L7.09 122.73 L7.09 119.89 L0 126.98 L7.09 134.07 L7.09 131.23 L21.26 131.23" class="st2"/>
		</g>
		<g id="shape62-148" transform="translate(209.475,-43.9906)">
			<title>Sheet.62</title>
			<desc>N subcarriers</desc>
			<rect x="0" y="126.067" width="74" height="8" class="st9"/>
			<text x="15.48" y="134.27" class="st10">N subcarriers</text>		</g>
		<g id="shape63-151" transform="translate(380.587,84.4565) rotate(101.31)">
			<title>Sheet.63</title>
			<path d="M0 134.07 L21.5 134.07" class="st2"/>
		</g>
		<g id="shape64-154" transform="translate(259.081,-51.9906)">
			<title>Rectangle.64</title>
			<desc>IFFT</desc>
			<rect x="0" y="105.721" width="49.6063" height="28.3465" class="st4"/>
			<text x="16.51" y="122.89" class="st5">IFFT</text>		</g>
		<g id="shape65-157" transform="translate(329.947,-59.0772) scale(-1,1)">
			<title>Straight bus.65</title>
			<path d="M21.26 122.73 L7.09 122.73 L7.09 119.89 L0 126.98 L7.09 134.07 L7.09 131.23 L21.26 131.23 L21.26 122.73 Z"
					class="st1"/>
			<path d="M21.26 122.73 L7.09 122.73 L7.09 119.89 L0 126.98 L7.09 134.07 L7.09 131.23 L21.26 131.23" class="st2"/>
		</g>
		<g id="shape66-160" transform="translate(280.341,-43.9906)">
			<title>Sheet.66</title>
			<desc>N subcarriers</desc>
			<rect x="0" y="126.067" width="74" height="8" class="st9"/>
			<text x="15.48" y="134.27" class="st10">N subcarriers</text>		</g>
		<g id="shape67-163" transform="translate(451.453,84.4565) rotate(101.31)">
			<title>Sheet.67</title>
			<path d="M0 134.07 L21.5 134.07" class="st2"/>
		</g>
		<g id="shape68-166" transform="translate(329.947,-51.9906)">
			<title>Rectangle.68</title>
			<desc>Parallel to serial</desc>
			<rect x="0" y="105.721" width="49.6063" height="28.3465" class="st4"/>
			<text x="4.31" y="116.89" class="st5">Parallel to <tspan x="13.93" dy="1.2em" class="st6">serial</tspan></text>		</g>
		<g id="shape69-170" transform="translate(379.553,-73.2504)">
			<title>Dynamic connector.69</title>
			<path d="M0 134.07 L7.56 134.07 L7.56 83.59 L15.94 83.59" class="st12"/>
		</g>
		<g id="shape71-173" transform="translate(379.553,-59.0772)">
			<title>Dynamic connector.71</title>
			<path d="M0 134.07 L7.56 134.07 L7.56 182.8 L15.94 182.8" class="st12"/>
		</g>
	</g>
</svg>
