<?xml version="1.0" encoding="UTF-8" standalone="no"?>
<!DOCTYPE svg PUBLIC "-//W3C//DTD SVG 1.1//EN" "http://www.w3.org/Graphics/SVG/1.1/DTD/svg11.dtd">
<!-- Generated by Microsoft Visio, SVG Export toIQ.svg Page-1 -->
<svg xmlns="http://www.w3.org/2000/svg" xmlns:xlink="http://www.w3.org/1999/xlink" xmlns:ev="http://www.w3.org/2001/xml-events"
		xmlns:v="http://schemas.microsoft.com/visio/2003/SVGExtensions/" width="1.86204in" height="1.93317in"
		viewBox="0 0 134.067 139.188" xml:space="preserve" color-interpolation-filters="sRGB" class="st13">
	<v:documentProperties v:langID="1033" v:viewMarkup="false"/>

	<style type="text/css">
	<![CDATA[
		.st1 {fill:none}
		.st2 {stroke:#000000;stroke-linecap:round;stroke-linejoin:round;stroke-width:0.24}
		.st3 {fill:#ffffff;stroke:#000000;stroke-linecap:round;stroke-linejoin:round;stroke-width:0.24}
		.st4 {fill:#000000;font-family:Calibri;font-size:0.833336em}
		.st5 {font-size:0.799995em}
		.st6 {marker-end:url(#mrkr13-40);stroke:#000000;stroke-linecap:round;stroke-linejoin:round;stroke-width:0.75}
		.st7 {fill:#000000;fill-opacity:1;stroke:#000000;stroke-opacity:1;stroke-width:0.22935779816514}
		.st8 {fill:none;stroke:none;stroke-linecap:round;stroke-linejoin:round;stroke-width:0.75}
		.st9 {fill:#000000;font-family:Calibri;font-size:0.666664em}
		.st10 {baseline-shift:-32.4939%;font-size:0.649878em}
		.st11 {font-size:1em}
		.st12 {marker-start:url(#mrkr13-87);stroke:#000000;stroke-linecap:round;stroke-linejoin:round;stroke-width:0.75}
		.st13 {fill:none;fill-rule:evenodd;font-size:12px;overflow:visible;stroke-linecap:square;stroke-miterlimit:3}
	]]>
	</style>

	<defs id="Markers">
		<g id="lend13">
			<path d="M 3 1 L 0 0 L 3 -1 L 3 1 " style="stroke:none"/>
		</g>
		<marker id="mrkr13-40" class="st7" v:arrowType="13" v:arrowSize="2" v:setback="13.08" refX="-13.08" orient="auto"
				markerUnits="strokeWidth" overflow="visible">
			<use xlink:href="#lend13" transform="scale(-4.36,-4.36) "/>
		</marker>
		<marker id="mrkr13-87" class="st7" v:arrowType="13" v:arrowSize="2" v:setback="12.6" refX="12.6" orient="auto"
				markerUnits="strokeWidth" overflow="visible">
			<use xlink:href="#lend13" transform="scale(4.36) "/>
		</marker>
	</defs>
	<g v:mID="0" v:index="1" v:groupContext="foregroundPage">
		<title>Page-1</title>
		<v:pageProperties v:drawingScale="0.0393701" v:pageScale="0.0393701" v:drawingUnits="24" v:shadowOffsetX="8.50394"
				v:shadowOffsetY="-8.50394"/>
		<v:layer v:name="Electrical" v:index="0"/>
		<v:layer v:name="Connector" v:index="1"/>
		<g id="shape1-1" v:mID="1" v:groupContext="shape" v:layerMember="0" transform="translate(81.9155,-58.5296)">
			<title>Oscillator</title>
			<v:userDefs>
				<v:ud v:nameU="visDescription" v:val="VT4(Generalized alternating-current source.)"/>
				<v:ud v:nameU="visVersion" v:val="VT0(15):26"/>
			</v:userDefs>
			<path d="M0 130.68 A8.50394 8.50394 0 0 1 17.01 130.68 A8.50394 8.50394 0 1 1 0 130.68 Z" class="st1"/>
			<path d="M8.5 130.68 A2.83465 2.83465 -180 1 0 14.17 130.68" class="st2"/>
			<path d="M2.83 130.68 A2.83465 2.83465 0 1 1 8.5 130.68" class="st2"/>
			<path d="M0 130.68 A8.50394 8.50394 0 0 1 17.01 130.68 A8.50394 8.50394 0 1 1 0 130.68" class="st2"/>
		</g>
		<g id="shape2-6" v:mID="2" v:groupContext="shape" v:layerMember="0" transform="translate(-124.595,72.1545) rotate(-90)">
			<title>Antenna</title>
			<v:userDefs>
				<v:ud v:nameU="visVersion" v:val="VT0(15):26"/>
				<v:ud v:nameU="visDescription" v:val="VT4(Antenna)"/>
			</v:userDefs>
			<path d="M28.35 134.94 L0 134.94" class="st2"/>
			<path d="M19.84 134.94 L28.35 130.68" class="st2"/>
			<path d="M28.35 139.19 L19.84 134.94" class="st2"/>
		</g>
		<g id="shape15-11" v:mID="15" v:groupContext="shape" transform="translate(78.3721,-37.7737)">
			<title>Rectangle.15</title>
			<desc>-π/2</desc>
			<v:userDefs>
				<v:ud v:nameU="visVersion" v:val="VT0(15):26"/>
			</v:userDefs>
			<v:textBlock v:margins="rect(4,4,4,4)" v:tabSpace="42.5197"/>
			<v:textRect cx="12.0472" cy="135.188" width="24.1" height="8"/>
			<rect x="0" y="131.188" width="24.0945" height="8" class="st3"/>
			<text x="4.73" y="138.19" class="st4" v:langID="1033"><v:paragraph v:horizAlign="1"/><v:tabList/>-<tspan class="st5">π</tspan><tspan
						class="st5">/</tspan><tspan class="st5">2</tspan></text>		</g>
		<g id="group20-17" transform="translate(81.9155,-115.223)" v:mID="20" v:groupContext="group">
			<title>Sheet.20</title>
			<g id="shape17-18" v:mID="17" v:groupContext="shape">
				<title>Circle</title>
				<v:userDefs>
					<v:ud v:nameU="visVersion" v:val="VT0(15):26"/>
				</v:userDefs>
				<path d="M0 130.68 A8.50394 8.50394 0 0 1 17.01 130.68 A8.50394 8.50394 0 1 1 0 130.68 Z" class="st3"/>
			</g>
			<g id="shape18-20" v:mID="18" v:groupContext="shape" transform="translate(-95.9309,38.2773) rotate(-45)">
				<title>Sheet.18</title>
				<path d="M0 139.19 L17.01 139.19" class="st2"/>
			</g>
			<g id="shape19-23" v:mID="19" v:groupContext="shape" transform="translate(100.911,26.2493) rotate(45)">
				<title>Sheet.19</title>
				<path d="M0 139.19 L17.01 139.19" class="st2"/>
			</g>
		</g>
		<g id="group21-26" transform="translate(81.9155,-1.83671)" v:mID="21" v:groupContext="group">
			<title>Sheet.21</title>
			<g id="shape22-27" v:mID="22" v:groupContext="shape">
				<title>Circle</title>
				<v:userDefs>
					<v:ud v:nameU="visVersion" v:val="VT0(15):26"/>
				</v:userDefs>
				<path d="M0 130.68 A8.50394 8.50394 0 0 1 17.01 130.68 A8.50394 8.50394 0 1 1 0 130.68 Z" class="st3"/>
			</g>
			<g id="shape23-29" v:mID="23" v:groupContext="shape" transform="translate(-95.9309,38.2773) rotate(-45)">
				<title>Sheet.23</title>
				<path d="M0 139.19 L17.01 139.19" class="st2"/>
			</g>
			<g id="shape24-32" v:mID="24" v:groupContext="shape" transform="translate(100.911,26.2493) rotate(45)">
				<title>Sheet.24</title>
				<path d="M0 139.19 L17.01 139.19" class="st2"/>
			</g>
		</g>
		<g id="shape25-35" v:mID="25" v:groupContext="shape" v:layerMember="1" transform="translate(83.3328,-75.5375)">
			<title>Dynamic connector.25</title>
			<path d="M7.09 139.19 L7.09 109.31" class="st6"/>
		</g>
		<g id="shape44-41" v:mID="44" v:groupContext="shape" v:layerMember="1" transform="translate(83.3328,-59.2383)">
			<title>Dynamic connector.44</title>
			<path d="M7.09 139.9 L7.09 142.84" class="st6"/>
		</g>
		<g id="shape45-46" v:mID="45" v:groupContext="shape" v:layerMember="1" transform="translate(83.3328,-37.7737)">
			<title>Dynamic connector.45</title>
			<path d="M7.09 139.19 L7.09 148.31" class="st6"/>
		</g>
		<g id="shape46-51" v:mID="46" v:groupContext="shape" transform="translate(49.317,-102.971)">
			<title>Sheet.46</title>
			<desc>cos(2πf0t)</desc>
			<v:textBlock v:margins="rect(1,1,1,1)" v:tabSpace="42.5197" v:verticalAlign="0"/>
			<v:textRect cx="18.4252" cy="135.188" width="36.86" height="8"/>
			<rect x="0" y="131.188" width="36.8504" height="8" class="st8"/>
			<text x="2.52" y="139.39" class="st9" v:langID="1033"><v:paragraph v:horizAlign="1"/><v:tabList/>cos(2πf<tspan
						dy="-0.284em" class="st10" v:baseFontSize="8">0</tspan><tspan dy="0.185em" class="st11">t</tspan>)</text>		</g>
		<g id="shape47-56" v:mID="47" v:groupContext="shape" transform="translate(49.317,-26.4351)">
			<title>Sheet.47</title>
			<desc>sin(2πf0t)</desc>
			<v:textBlock v:margins="rect(1,1,1,1)" v:tabSpace="42.5197" v:verticalAlign="0"/>
			<v:textRect cx="18.4252" cy="135.188" width="36.86" height="8"/>
			<rect x="0" y="131.188" width="36.8504" height="8" class="st8"/>
			<text x="3.3" y="139.39" class="st9" v:langID="1033"><v:paragraph v:horizAlign="1"/><v:tabList/>sin(2πf<tspan
						dy="-0.284em" class="st10" v:baseFontSize="8">0</tspan><tspan dy="0.185em" class="st11">t</tspan>)</text>		</g>
		<g id="shape49-61" v:mID="49" v:groupContext="shape" transform="translate(107.427,-130.813)">
			<title>Sheet.49</title>
			<desc>I(t)</desc>
			<v:textBlock v:margins="rect(1,1,1,1)" v:tabSpace="42.5197" v:verticalAlign="0"/>
			<v:textRect cx="8.50394" cy="135.188" width="17.01" height="8"/>
			<rect x="0" y="131.188" width="17.0079" height="8" class="st8"/>
			<text x="3.73" y="139.39" class="st9" v:langID="1033"><v:paragraph v:horizAlign="1"/><v:tabList/>I(t)</text>		</g>
		<g id="shape50-64" v:mID="50" v:groupContext="shape" transform="translate(109.553,-17.4273)">
			<title>Sheet.50</title>
			<desc>Q(t)</desc>
			<v:textBlock v:margins="rect(1,1,1,1)" v:tabSpace="42.5197" v:verticalAlign="0"/>
			<v:textRect cx="8.50394" cy="135.188" width="17.01" height="8"/>
			<rect x="0" y="131.188" width="17.0079" height="8" class="st8"/>
			<text x="2.05" y="139.39" class="st9" v:langID="1033"><v:paragraph v:horizAlign="1"/><v:tabList/>Q(t)</text>		</g>
		<g id="shape61-67" v:mID="61" v:groupContext="shape" v:layerMember="1" transform="translate(98.9233,-116.64)">
			<title>Dynamic connector</title>
			<path d="M0 132.1 L14.99 132.1" class="st6"/>
		</g>
		<g id="shape62-72" v:mID="62" v:groupContext="shape" v:layerMember="1" transform="translate(98.9233,-3.25403)">
			<title>Dynamic connector.62</title>
			<path d="M0 132.1 L14.99 132.1" class="st6"/>
		</g>
		<g id="shape65-77" v:mID="65" v:groupContext="shape" v:layerMember="1" transform="translate(10.3406,-67.0336)">
			<title>Dynamic connector.65</title>
			<path d="M0 139.19 L16.06 139.19 L16.06 82.5 L61.76 82.5" class="st6"/>
		</g>
		<g id="shape66-82" v:mID="66" v:groupContext="shape" v:layerMember="1" transform="translate(81.9155,-10.3406)">
			<title>Dynamic connector.66</title>
			<path d="M-9.45 139.19 L-9.81 139.19 L-55.51 139.19 L-55.51 82.5 L-71.57 82.5" class="st12"/>
		</g>
	</g>
</svg>
