<?xml version="1.0" encoding="UTF-8" standalone="no"?>
<!DOCTYPE svg PUBLIC "-//W3C//DTD SVG 1.1//EN" "http://www.w3.org/Graphics/SVG/1.1/DTD/svg11.dtd">
<!-- Generated by Microsoft Visio, SVG Export QTX.svg Page-1 -->
<svg xmlns="http://www.w3.org/2000/svg" xmlns:xlink="http://www.w3.org/1999/xlink" xmlns:ev="http://www.w3.org/2001/xml-events"
		width="2.08515in" height="1.86204in" viewBox="0 0 150.131 134.067" xml:space="preserve" color-interpolation-filters="sRGB"
		class="st13">
	<style type="text/css">
	<![CDATA[
		.st1 {fill:none}
		.st2 {stroke:#000000;stroke-linecap:round;stroke-linejoin:round;stroke-width:0.24}
		.st3 {fill:#ffffff;stroke:#000000;stroke-linecap:round;stroke-linejoin:round;stroke-width:0.24}
		.st4 {fill:#000000;font-family:Calibri;font-size:0.833336em}
		.st5 {font-size:0.799995em}
		.st6 {marker-end:url(#mrkr13-40);stroke:#000000;stroke-linecap:round;stroke-linejoin:round;stroke-width:0.75}
		.st7 {fill:#000000;fill-opacity:1;stroke:#000000;stroke-opacity:1;stroke-width:0.22935779816514}
		.st8 {stroke:#000000;stroke-linecap:round;stroke-linejoin:round;stroke-width:0.75}
		.st9 {fill:none;stroke:none;stroke-linecap:round;stroke-linejoin:round;stroke-width:0.75}
		.st10 {fill:#000000;font-family:Calibri;font-size:0.666664em}
		.st11 {baseline-shift:-32.4939%;font-size:0.649878em}
		.st12 {font-size:1em}
		.st13 {fill:none;fill-rule:evenodd;font-size:12px;overflow:visible;stroke-linecap:square;stroke-miterlimit:3}
	]]>
	</style>

	<defs id="Markers">
		<g id="lend13">
			<path d="M 3 1 L 0 0 L 3 -1 L 3 1 " style="stroke:none"/>
		</g>
		<marker id="mrkr13-40" class="st7" refX="-13.08" orient="auto" markerUnits="strokeWidth" overflow="visible">
			<use xlink:href="#lend13" transform="scale(-4.36,-4.36) "/>
		</marker>
	</defs>
	<g>
		<title>Page-1</title>
		<g id="shape1-1" transform="translate(46.0837,-58.5296)">
			<title>Oscillator</title>
			<path d="M0 125.56 A8.50394 8.50394 0 0 1 17.01 125.56 A8.50394 8.50394 0 1 1 0 125.56 Z" class="st1"/>
			<path d="M8.5 125.56 A2.83465 2.83465 -180 1 0 14.17 125.56" class="st2"/>
			<path d="M2.83 125.56 A2.83465 2.83465 0 1 1 8.5 125.56" class="st2"/>
			<path d="M0 125.56 A8.50394 8.50394 0 0 1 17.01 125.56 A8.50394 8.50394 0 1 1 0 125.56" class="st2"/>
		</g>
		<g id="shape2-6" transform="translate(14.0638,67.0336) rotate(-90)">
			<title>Antenna</title>
			<path d="M28.35 129.82 L0 129.82" class="st2"/>
			<path d="M19.84 129.82 L28.35 125.56" class="st2"/>
			<path d="M28.35 134.07 L19.84 129.82" class="st2"/>
		</g>
		<g id="shape15-11" transform="translate(42.5404,-37.7737)">
			<title>Rectangle.15</title>
			<desc>-π/2</desc>
			<rect x="0" y="126.067" width="24.0945" height="8" class="st3"/>
			<text x="4.73" y="133.07" class="st4">-<tspan class="st5">π</tspan><tspan class="st5">/</tspan><tspan class="st5">2</tspan></text>		</g>
		<g id="group20-17" transform="translate(46.0837,-115.223)">
			<title>Sheet.20</title>
			<g id="shape17-18">
				<title>Circle</title>
				<path d="M0 125.56 A8.50394 8.50394 0 0 1 17.01 125.56 A8.50394 8.50394 0 1 1 0 125.56 Z" class="st3"/>
			</g>
			<g id="shape18-20" transform="translate(-92.3098,36.7774) rotate(-45)">
				<title>Sheet.18</title>
				<path d="M0 134.07 L17.01 134.07" class="st2"/>
			</g>
			<g id="shape19-23" transform="translate(97.2897,24.7494) rotate(45)">
				<title>Sheet.19</title>
				<path d="M0 134.07 L17.01 134.07" class="st2"/>
			</g>
		</g>
		<g id="group21-26" transform="translate(46.0837,-1.83671)">
			<title>Sheet.21</title>
			<g id="shape22-27">
				<title>Circle</title>
				<path d="M0 125.56 A8.50394 8.50394 0 0 1 17.01 125.56 A8.50394 8.50394 0 1 1 0 125.56 Z" class="st3"/>
			</g>
			<g id="shape23-29" transform="translate(-92.3098,36.7774) rotate(-45)">
				<title>Sheet.23</title>
				<path d="M0 134.07 L17.01 134.07" class="st2"/>
			</g>
			<g id="shape24-32" transform="translate(97.2897,24.7494) rotate(45)">
				<title>Sheet.24</title>
				<path d="M0 134.07 L17.01 134.07" class="st2"/>
			</g>
		</g>
		<g id="shape25-35" transform="translate(47.501,-75.5375)">
			<title>Dynamic connector.25</title>
			<path d="M7.09 134.07 L7.09 104.19" class="st6"/>
		</g>
		<g id="group39-41" transform="translate(85.7687,-58.5296)">
			<title>Sheet.39</title>
			<g id="shape36-42">
				<title>Circle</title>
				<path d="M0 125.56 A8.50394 8.50394 0 0 1 17.01 125.56 A8.50394 8.50394 0 1 1 0 125.56 Z" class="st3"/>
			</g>
			<g id="shape37-44" transform="translate(-125.563,134.067) rotate(-90)">
				<title>Sheet.37</title>
				<path d="M0 134.07 L17.01 134.07" class="st2"/>
			</g>
			<g id="shape38-47" transform="translate(0,-8.50394)">
				<title>Sheet.38</title>
				<path d="M0 134.07 L17.01 134.07" class="st2"/>
			</g>
		</g>
		<g id="shape40-50" transform="translate(63.0915,-123.726)">
			<title>Dynamic connector.40</title>
			<path d="M0 134.07 L31.18 134.07 L31.18 172.45" class="st6"/>
		</g>
		<g id="shape41-55" transform="translate(63.0915,-10.3406)">
			<title>Dynamic connector.41</title>
			<path d="M0 134.07 L31.18 134.07 L31.18 95.69" class="st6"/>
		</g>
		<g id="shape43-60" transform="translate(102.777,-59.9469)">
			<title>Dynamic connector.43</title>
			<path d="M0 126.98 L41.1 126.98" class="st8"/>
		</g>
		<g id="shape44-63" transform="translate(47.501,-59.2383)">
			<title>Dynamic connector.44</title>
			<path d="M7.09 134.78 L7.09 137.72" class="st6"/>
		</g>
		<g id="shape45-68" transform="translate(47.501,-37.7737)">
			<title>Dynamic connector.45</title>
			<path d="M7.09 134.07 L7.09 143.19" class="st6"/>
		</g>
		<g id="shape46-73" transform="translate(13.4852,-102.971)">
			<title>Sheet.46</title>
			<desc>cos(2πf0t)</desc>
			<rect x="0" y="126.067" width="36.8504" height="8" class="st9"/>
			<text x="2.52" y="134.27" class="st10">cos(2πf<tspan dy="-0.284em" class="st11">0</tspan><tspan dy="0.185em"
						class="st12">t</tspan>)</text>		</g>
		<g id="shape47-78" transform="translate(13.4852,-26.4351)">
			<title>Sheet.47</title>
			<desc>sin(2πf0t)</desc>
			<rect x="0" y="126.067" width="36.8504" height="8" class="st9"/>
			<text x="3.3" y="134.27" class="st10">sin(2πf<tspan dy="-0.284em" class="st11">0</tspan><tspan dy="0.185em"
						class="st12">t</tspan>)</text>		</g>
		<g id="shape48-83" transform="translate(17.0285,-116.64)">
			<title>Dynamic connector</title>
			<path d="M0 126.98 L19.25 126.98" class="st6"/>
		</g>
		<g id="shape49-88" transform="translate(17.0285,-3.25403)">
			<title>Dynamic connector.49</title>
			<path d="M0 126.98 L19.25 126.98" class="st6"/>
		</g>
		<g id="shape50-93" transform="translate(0.375,-122.813)">
			<title>Sheet.50</title>
			<desc>I(t)</desc>
			<rect x="0" y="126.067" width="17.0079" height="8" class="st9"/>
			<text x="3.73" y="134.27" class="st10">I(t)</text>		</g>
		<g id="shape51-96" transform="translate(1.43799,-9.42726)">
			<title>Sheet.51</title>
			<desc>Q(t)</desc>
			<rect x="0" y="126.067" width="17.0079" height="8" class="st9"/>
			<text x="2.05" y="134.27" class="st10">Q(t)</text>		</g>
	</g>
</svg>
