<?xml version="1.0" encoding="UTF-8" standalone="no"?>
<!DOCTYPE svg PUBLIC "-//W3C//DTD SVG 1.1//EN" "http://www.w3.org/Graphics/SVG/1.1/DTD/svg11.dtd">
<!-- Generated by Microsoft Visio, SVG Export subcarriers.svg Page-1 -->
<svg xmlns="http://www.w3.org/2000/svg" xmlns:xlink="http://www.w3.org/1999/xlink" xmlns:ev="http://www.w3.org/2001/xml-events"
		xmlns:v="http://schemas.microsoft.com/visio/2003/SVGExtensions/" width="4.98235in" height="1.3126in"
		viewBox="0 0 358.729 94.507" xml:space="preserve" color-interpolation-filters="sRGB" class="st11">
	<v:documentProperties v:langID="1033" v:viewMarkup="false"/>

	<style type="text/css">
	<![CDATA[
		.st1 {marker-end:url(#mrkr13-6);stroke:#000000;stroke-linecap:round;stroke-linejoin:round;stroke-width:0.24}
		.st2 {fill:#000000;fill-opacity:1;stroke:#000000;stroke-opacity:1;stroke-width:0.11764705882353}
		.st3 {fill:#ffffff;stroke:none;stroke-linecap:butt}
		.st4 {fill:#000000;font-family:Calibri;font-size:0.666664em}
		.st5 {stroke:#000000;stroke-dasharray:0.24,0.48;stroke-linecap:round;stroke-linejoin:round;stroke-width:0.24}
		.st6 {stroke:#000000;stroke-linecap:round;stroke-linejoin:round;stroke-width:0.24}
		.st7 {fill:none;stroke:none;stroke-linecap:round;stroke-linejoin:round;stroke-width:0.75}
		.st8 {baseline-shift:-32.4939%;font-size:0.649878em}
		.st9 {marker-end:url(#mrkr13-6);marker-start:url(#mrkr13-26);stroke:#000000;stroke-linecap:round;stroke-linejoin:round;stroke-width:0.24}
		.st10 {fill:#ffffff;stroke:none;stroke-linecap:butt;stroke-width:7.2}
		.st11 {fill:none;fill-rule:evenodd;font-size:12px;overflow:visible;stroke-linecap:square;stroke-miterlimit:3}
	]]>
	</style>

	<defs id="Markers">
		<g id="lend13">
			<path d="M 3 1 L 0 0 L 3 -1 L 3 1 " style="stroke:none"/>
		</g>
		<marker id="mrkr13-6" class="st2" v:arrowType="13" v:arrowSize="1" v:setback="25.5" refX="-25.5" orient="auto"
				markerUnits="strokeWidth" overflow="visible">
			<use xlink:href="#lend13" transform="scale(-8.5000000000001,-8.5000000000001) "/>
		</marker>
		<marker id="mrkr13-26" class="st2" v:arrowType="13" v:arrowSize="1" v:setback="24" refX="24" orient="auto"
				markerUnits="strokeWidth" overflow="visible">
			<use xlink:href="#lend13" transform="scale(8.5000000000001) "/>
		</marker>
	</defs>
	<g v:mID="0" v:index="1" v:groupContext="foregroundPage">
		<title>Page-1</title>
		<v:pageProperties v:drawingScale="0.0393701" v:pageScale="0.0393701" v:drawingUnits="24" v:shadowOffsetX="8.50394"
				v:shadowOffsetY="-8.50394"/>
		<g id="shape1-1" v:mID="1" v:groupContext="shape" transform="translate(6.45105,-20.0244)">
			<title>Sheet.1</title>
			<desc>frequency [Hz]</desc>
			<v:textBlock v:margins="rect(1,1,1,1)" v:tabSpace="42.5197" v:verticalAlign="0"/>
			<v:textRect cx="75.1181" cy="94.507" width="150.24" height="0"/>
			<path d="M0 94.51 L144.12 94.51" class="st1"/>
			<rect v:rectContext="textBkgnd" x="101.572" y="95.507" width="47.6639" height="9.59985" class="st3"/>
			<text x="101.57" y="102.71" class="st4" v:langID="1033"><v:paragraph v:horizAlign="2"/><v:tabList/>frequency [Hz]</text>		</g>
		<g id="shape2-9" v:mID="2" v:groupContext="shape" transform="translate(77.3172,-14.3551)">
			<title>Sheet.2</title>
			<path d="M0 94.51 L0 83.17 L0 26.48" class="st5"/>
		</g>
		<g id="group6-12" transform="translate(20.6243,-20.0244)" v:mID="6" v:groupContext="group">
			<title>Sheet.6</title>
			<g id="shape5-13" v:mID="5" v:groupContext="shape">
				<title>Sheet.5</title>
				<path d="M-0 94.51 A56.6929 56.6929 0 0 1 56.69 37.81 A56.6929 56.6929 90 0 1 113.39 94.51" class="st6"/>
			</g>
		</g>
		<g id="shape9-16" v:mID="9" v:groupContext="shape" transform="translate(65.9786,-4.68583)">
			<title>Sheet.9</title>
			<desc>f0</desc>
			<v:textBlock v:margins="rect(1,1,1,1)" v:tabSpace="42.5197" v:verticalAlign="0"/>
			<v:textRect cx="11.3609" cy="90.507" width="22.73" height="8"/>
			<rect x="0" y="86.507" width="22.7218" height="8" class="st7"/>
			<text x="8.82" y="94.71" class="st4" v:langID="1033"><v:paragraph v:horizAlign="1"/><v:tabList/>f<tspan dy="-0.284em"
						class="st8" v:baseFontSize="8">0</tspan></text>		</g>
		<g id="shape11-20" v:mID="11" v:groupContext="shape" transform="translate(20.6243,-88.0559)">
			<title>Sheet.11</title>
			<desc>Bandwidth</desc>
			<v:textBlock v:margins="rect(1,1,1,1)" v:tabSpace="42.5197" v:verticalAlign="0"/>
			<v:textRect cx="56.6929" cy="94.507" width="113.39" height="0"/>
			<path d="M5.76 94.51 L6.12 94.51 L107.27 94.51" class="st9"/>
			<rect v:rectContext="textBkgnd" x="39.0778" y="95.507" width="35.2299" height="9.59985" class="st10"/>
			<text x="39.08" y="102.71" class="st4" v:langID="1033"><v:paragraph v:horizAlign="1"/><v:tabList/>Bandwidth</text>		</g>
		<g id="shape12-30" v:mID="12" v:groupContext="shape" transform="translate(202.042,-20.0244)">
			<title>Sheet.12</title>
			<desc>frequency [Hz]</desc>
			<v:textBlock v:margins="rect(1,1,1,1)" v:tabSpace="42.5197" v:verticalAlign="0"/>
			<v:textRect cx="75.1181" cy="94.507" width="150.24" height="0"/>
			<path d="M0 94.51 L144.12 94.51" class="st1"/>
			<rect v:rectContext="textBkgnd" x="101.572" y="95.507" width="47.6639" height="9.59985" class="st10"/>
			<text x="101.57" y="102.71" class="st4" v:langID="1033"><v:paragraph v:horizAlign="2"/><v:tabList/>frequency [Hz]</text>		</g>
		<g id="shape13-37" v:mID="13" v:groupContext="shape" transform="translate(230.388,-14.3551)">
			<title>Sheet.13</title>
			<path d="M0 94.51 L0 83.17 L0 26.48" class="st5"/>
		</g>
		<g id="group14-40" transform="translate(216.215,-20.0244)" v:mID="14" v:groupContext="group">
			<title>Sheet.14</title>
			<g id="shape15-41" v:mID="15" v:groupContext="shape">
				<title>Sheet.15</title>
				<path d="M-0 94.51 A14.1732 56.6929 0 0 1 14.17 37.81 A56.6929 14.1732 90 0 1 28.35 94.51" class="st6"/>
			</g>
		</g>
		<g id="shape16-44" v:mID="16" v:groupContext="shape" transform="translate(213.38,-4.68583)">
			<title>Sheet.16</title>
			<desc>fsubcarrier0</desc>
			<v:textBlock v:margins="rect(1,1,1,1)" v:tabSpace="42.5197" v:verticalAlign="0"/>
			<v:textRect cx="17.0079" cy="90.507" width="34.02" height="8"/>
			<rect x="0" y="86.507" width="34.0157" height="8" class="st7"/>
			<text x="3.77" y="94.71" class="st4" v:langID="1033"><v:paragraph v:horizAlign="1"/><v:tabList/>f<tspan dy="-0.284em"
						class="st8" v:baseFontSize="8">subcarrier</tspan><tspan class="st8" v:baseFontSize="8">0</tspan></text>		</g>
		<g id="shape17-49" v:mID="17" v:groupContext="shape" transform="translate(216.215,-88.0559)">
			<title>Sheet.17</title>
			<desc>Bandwidth</desc>
			<v:textBlock v:margins="rect(1,1,1,1)" v:tabSpace="42.5197" v:verticalAlign="0"/>
			<v:textRect cx="56.6929" cy="94.507" width="113.39" height="0"/>
			<path d="M5.76 94.51 L6.12 94.51 L107.27 94.51" class="st9"/>
			<rect v:rectContext="textBkgnd" x="39.0778" y="95.507" width="35.2299" height="9.59985" class="st10"/>
			<text x="39.08" y="102.71" class="st4" v:langID="1033"><v:paragraph v:horizAlign="1"/><v:tabList/>Bandwidth</text>		</g>
		<g id="group18-58" transform="translate(244.561,-20.0244)" v:mID="18" v:groupContext="group">
			<title>Sheet.18</title>
			<g id="shape19-59" v:mID="19" v:groupContext="shape">
				<title>Sheet.19</title>
				<path d="M-0 94.51 A14.1732 56.6929 0 0 1 14.17 37.81 A56.6929 14.1732 90 0 1 28.35 94.51" class="st6"/>
			</g>
		</g>
		<g id="group20-62" transform="translate(272.908,-20.0244)" v:mID="20" v:groupContext="group">
			<title>Sheet.20</title>
			<g id="shape21-63" v:mID="21" v:groupContext="shape">
				<title>Sheet.21</title>
				<path d="M-0 94.51 A12.7559 56.6929 0 0 1 12.76 37.81 A56.6929 12.7559 90 0 1 25.51 94.51" class="st6"/>
			</g>
		</g>
		<g id="group22-66" transform="translate(298.42,-20.0244)" v:mID="22" v:groupContext="group">
			<title>Sheet.22</title>
			<g id="shape23-67" v:mID="23" v:groupContext="shape">
				<title>Sheet.23</title>
				<path d="M-0 94.51 A14.1732 56.6929 0 0 1 14.17 37.81 A56.6929 14.1732 90 0 1 28.35 94.51" class="st6"/>
			</g>
		</g>
		<g id="shape24-70" v:mID="24" v:groupContext="shape" transform="translate(272.908,-12.6858)">
			<title>Sheet.24</title>
			<path d="M0 94.51 L0 83.17 L0 26.48" class="st5"/>
		</g>
		<g id="shape25-73" v:mID="25" v:groupContext="shape" transform="translate(261.569,-3.01654)">
			<title>Sheet.25</title>
			<desc>f0</desc>
			<v:textBlock v:margins="rect(1,1,1,1)" v:tabSpace="42.5197" v:verticalAlign="0"/>
			<v:textRect cx="11.3609" cy="90.507" width="22.73" height="8"/>
			<rect x="0" y="86.507" width="22.7218" height="8" class="st7"/>
			<text x="8.82" y="94.71" class="st4" v:langID="1033"><v:paragraph v:horizAlign="1"/><v:tabList/>f<tspan dy="-0.284em"
						class="st8" v:baseFontSize="8">0</tspan></text>		</g>
	</g>
</svg>
